# xmcd
#
# Track frame offsets: 
#        150
#        11719
#        26847
#        40181
#        53168
#        68981
#        82165
#        97541
#        111410
#        126028
#        145343
#        160750
#        173838
#        187971
#        201782
#        217827
#        232523
#        248438
#        262685
#        277339
#        292866
#        306554
#
# Disc length: 4273 seconds
#
# Revision: 2
# Processed by: cddbd v1.5.2PL0 Copyright (c) Steve Scherf et al.
# Submitted via: ExactAudioCopyFreeDBPlugin 1.0
#
DISCID=2c10af16
DTITLE=Various Artist - Holland Dozier Holland:  The Complete 45s Col
DTITLE=lection (Invictus, Hot Wax, Music Merchant), 1969-1977 [Harmles
DTITLE=s box set]
DYEAR=2014
DGENRE=Soul
TTITLE0=Parliament - Breakdown
TTITLE1=Ruth Copeland - Gimme Shelter
TTITLE2=Glass House - Look What We've Done to Love
TTITLE3=The 8th Day - You've Got to Crawl (Before You Walk)
TTITLE4=The Chairmen of the Board - Try On My Love for Size
TTITLE5=Freda Payne - You Brought the Joy
TTITLE6=Johnn Billy West - Nothing But a Devil
TTITLE7=Billie Sans - Solo
TTITLE8=The Chairmen of the Board - Men Are Getting Scarce
TTITLE9=Barrino Brothers - I Had it All
TTITLE10=The Chairmen of the Board - Bittersweet
TTITLE11=General Johnson - All We Need is Understanding
TTITLE12=The 8th Day - If I Could See the Light in the Window
TTITLE13=Lucifer - We Gotta Go
TTITLE14=Freda Payne - I'm Not Getting Any Better
TTITLE15=Holland-Dozier - Don't Leave Me (vocal)
TTITLE16=Glass House - Playing Games
TTITLE17=Harrison Kennedy - Sunday Morning People
TTITLE18=Scherrie Payne - V.I.P.
TTITLE19=Melvin Davis - I'm Worried
TTITLE20=Danny Woods - Let Me Ride
TTITLE21=The 8th Day - Rocks in My Head
EXTD=
EXTT0=
EXTT1=
EXTT2=
EXTT3=
EXTT4=
EXTT5=
EXTT6=
EXTT7=
EXTT8=
EXTT9=
EXTT10=
EXTT11=
EXTT12=
EXTT13=
EXTT14=
EXTT15=
EXTT16=
EXTT17=
EXTT18=
EXTT19=
EXTT20=
EXTT21=
PLAYORDER=
